<?xml version="1.0" standalone="no"?>
<!DOCTYPE svg PUBLIC "-//W3C//DTD SVG 20010904//EN"
 "http://www.w3.org/TR/2001/REC-SVG-20010904/DTD/svg10.dtd">
<svg version="1.0" xmlns="http://www.w3.org/2000/svg"
 width="673.000000pt" height="912.000000pt" viewBox="0 0 673.000000 912.000000"
 preserveAspectRatio="xMidYMid meet">

<g transform="translate(0.000000,912.000000) scale(0.100000,-0.100000)"
fill="#000000" stroke="none">
<path d="M2427 8419 c-136 -32 -353 -205 -408 -327 -112 -248 -130 -365 -84
-561 19 -78 14 -86 -65 -101 -30 -6 -58 -14 -63 -19 -4 -4 3 -24 16 -44 14
-20 28 -57 32 -83 9 -64 102 -430 115 -454 6 -11 19 -24 29 -30 11 -5 22 -24
26 -42 25 -116 102 -260 191 -353 43 -46 48 -57 65 -140 11 -49 19 -110 19
-135 1 -41 13 -105 38 -200 5 -19 36 -75 69 -125 33 -49 79 -127 103 -173 44
-85 58 -100 146 -156 l52 -33 5 66 c7 92 32 163 70 203 17 18 102 99 187 178
260 244 400 406 400 466 0 16 -10 39 -25 54 -24 25 -26 34 -31 166 -3 76 -2
182 3 234 l8 95 39 1 c31 1 46 8 68 33 15 17 28 37 28 43 0 7 -14 -3 -31 -22
-17 -19 -28 -29 -24 -22 7 14 4 15 -27 3 -16 -6 -29 -5 -40 3 -16 12 -15 16 8
60 17 32 22 52 16 58 -13 13 -32 2 -32 -19 0 -9 -3 -13 -7 -9 -7 6 -12 126 -6
126 1 0 10 -15 19 -32 l17 -33 9 28 c15 42 31 33 25 -14 l-5 -41 24 23 c37 35
34 101 -6 138 -29 26 -30 28 -13 43 20 17 52 35 42 24 -4 -4 2 -29 12 -57 29
-76 25 -124 -12 -159 -42 -38 -20 -67 29 -37 8 5 12 2 13 -10 0 -10 5 -5 10
12 5 17 7 48 4 70 -3 26 -2 35 4 26 6 -10 9 8 8 52 -1 37 1 67 5 67 5 0 8 27
8 61 0 56 -3 64 -34 95 -30 30 -37 33 -61 24 -50 -19 -55 -15 -55 48 0 73 -34
276 -61 367 -47 157 -132 290 -231 362 -154 112 -301 183 -418 202 -76 13
-170 13 -223 0z m62 -355 c6 4 72 10 146 13 130 6 135 5 142 -15 6 -16 12 -19
23 -12 13 9 13 11 0 21 -13 9 -13 10 0 6 8 -2 22 -17 30 -33 18 -35 27 -42 49
-39 9 1 10 0 4 -2 -23 -8 -15 -61 13 -87 29 -26 42 -90 23 -113 -15 -17 -4
-58 22 -82 12 -11 19 -26 16 -35 -3 -9 -1 -19 6 -23 8 -5 3 -10 -13 -14 -24
-7 -24 -7 8 -14 18 -4 35 -12 39 -18 4 -6 -4 -7 -23 -3 -72 18 -86 17 -137 -2
-51 -20 -151 -40 -234 -47 -23 -2 -50 -8 -60 -14 -19 -10 -115 -25 -143 -22
-8 0 -80 3 -160 6 -115 4 -146 8 -153 20 -5 10 -16 13 -33 9 -14 -4 -24 -2
-24 5 0 6 5 11 10 11 16 0 59 52 60 71 0 8 -5 20 -11 26 -8 8 -8 21 1 49 10
31 14 34 22 20 5 -9 8 -34 6 -54 -3 -34 -1 -37 22 -37 19 0 25 6 31 34 4 18
13 37 20 42 21 12 3 22 -19 10 -19 -10 -32 -6 -32 11 0 5 4 6 10 3 6 -4 7 11
4 39 -6 38 -4 46 9 46 21 0 32 42 18 68 -6 12 -11 34 -11 51 0 23 4 29 16 24
10 -4 17 1 21 15 3 12 13 24 22 26 17 5 133 27 166 31 11 1 20 3 20 4 0 2 8 4
18 6 11 2 21 6 25 9 3 4 9 1 13 -5 4 -6 12 -8 18 -5z m-455 -136 c-1 -13 -3
-39 -4 -58 -1 -31 -2 -33 -10 -12 -5 12 -12 22 -15 22 -3 0 -10 -10 -15 -22
-9 -21 -9 -21 -7 5 2 16 9 32 16 37 8 4 11 12 7 18 -5 8 11 25 30 32 0 0 0
-10 -2 -22z m123 -240 c-3 -7 -5 -2 -5 12 0 14 2 19 5 13 2 -7 2 -19 0 -25z
m953 -89 c0 -6 -4 -7 -10 -4 -5 3 -10 11 -10 16 0 6 5 7 10 4 6 -3 10 -11 10
-16z m40 -3 c0 -2 -7 -9 -15 -16 -13 -11 -14 -10 -9 4 5 14 24 23 24 12z m-90
-26 c0 -5 -7 -10 -16 -10 -8 0 -12 5 -9 10 3 6 10 10 16 10 5 0 9 -4 9 -10z
m-578 -82 c-7 -7 -12 -8 -12 -2 0 14 12 26 19 19 2 -3 -1 -11 -7 -17z m928
-74 c0 -3 -7 -12 -15 -20 -16 -17 -18 -14 -9 10 6 15 24 23 24 10z m-1225 -34
c3 -5 -1 -10 -9 -10 -9 0 -16 5 -16 10 0 6 4 10 9 10 6 0 13 -4 16 -10z m1181
-29 c-9 -14 -36 -14 -36 -1 0 6 4 10 10 10 5 0 7 8 3 18 -5 16 -5 16 12 0 9
-9 14 -21 11 -27z m-1426 25 c0 -3 -4 -8 -10 -11 -5 -3 -10 -1 -10 4 0 6 5 11
10 11 6 0 10 -2 10 -4z m262 -38 c-9 -9 -15 -9 -24 0 -9 9 -7 12 12 12 19 0
21 -3 12 -12z m347 -98 c50 -80 58 -98 50 -119 -12 -31 2 -47 29 -32 18 9 24
7 41 -18 26 -36 26 -37 -1 -46 -30 -9 -70 -6 -86 8 -9 7 -16 7 -24 -1 -7 -7
-21 -12 -31 -12 -10 0 -32 -8 -48 -17 -23 -14 -33 -15 -48 -6 -34 22 -86 26
-100 9 -16 -19 -31 -21 -31 -5 0 15 62 85 72 82 4 -2 8 8 8 22 0 14 4 33 9 43
5 9 16 43 25 75 10 31 21 57 27 57 5 0 9 11 9 23 0 27 9 39 27 35 7 -2 39 -46
72 -98z m-635 74 c17 -7 22 -34 6 -34 -5 0 -10 -9 -10 -19 0 -11 -4 -23 -10
-26 -6 -4 -10 12 -10 39 0 49 0 49 24 40z m737 -36 c6 -11 34 -31 62 -44 70
-31 212 -36 245 -8 12 10 22 24 22 30 0 28 29 21 46 -12 18 -33 18 -34 -2 -61
-30 -41 -115 -72 -194 -72 -83 -1 -138 12 -155 36 -7 10 -25 31 -40 47 -37 40
-61 96 -45 106 18 11 49 0 61 -22z m-339 -115 c-5 -25 -4 -27 12 -14 15 13 16
12 6 -15 -18 -47 -70 -93 -124 -109 -58 -17 -156 -20 -156 -4 0 6 10 8 23 5
12 -3 16 -3 8 0 -11 5 -11 8 0 15 10 6 11 9 2 9 -20 0 -15 34 8 59 17 19 28
22 56 16 21 -4 40 -2 49 6 8 6 17 9 21 6 3 -4 15 -1 27 5 11 7 24 11 29 10 4
-1 7 4 7 11 0 8 4 7 10 -3 8 -12 10 -11 10 8 0 12 4 22 9 22 4 0 6 -12 3 -27z
m-305 1 c-3 -3 -12 -4 -19 -1 -8 3 -5 6 6 6 11 1 17 -2 13 -5z m1045 -51 c-8
-76 -11 -77 -172 -63 -77 7 -148 18 -157 25 -14 10 -8 11 33 5 92 -14 248 22
285 66 17 20 17 19 11 -33z m-1071 4 c-10 -9 -11 -8 -5 6 3 10 9 15 12 12 3
-3 0 -11 -7 -18z m12 -67 c3 -11 1 -18 -4 -14 -5 3 -9 12 -9 20 0 20 7 17 13
-6z m971 -56 c54 -8 59 -19 14 -28 -49 -10 -60 -10 -94 4 -18 8 -44 10 -66 6
l-35 -6 34 -36 c36 -38 37 -61 6 -96 -9 -10 -13 -24 -10 -33 4 -8 2 -15 -3
-15 -5 0 -16 -7 -24 -16 -14 -13 -30 -14 -124 -5 -59 5 -123 8 -142 6 -19 -2
-51 0 -71 5 -27 5 -47 2 -75 -11 -22 -9 -52 -21 -68 -25 -26 -6 -27 -5 -15 13
7 13 19 18 31 15 12 -3 18 1 18 12 0 9 7 16 15 16 7 0 18 7 23 16 7 12 14 14
28 7 10 -5 34 -8 52 -7 17 1 30 -2 26 -7 -6 -11 -2 -11 20 -3 9 3 16 11 16 18
0 6 13 23 29 39 24 22 38 27 81 27 56 0 86 22 110 80 12 30 13 30 95 30 45 0
103 -3 129 -6z m-928 -22 c-10 -2 -22 0 -28 6 -6 6 0 7 19 4 21 -5 23 -7 9
-10z m285 -142 c5 0 4 -6 -3 -13 -10 -11 -15 -11 -30 2 -10 8 -18 24 -18 35 0
19 1 19 20 -2 12 -12 25 -22 31 -22z m318 -176 c-26 -25 -129 -45 -129 -24 0
6 10 10 23 10 12 0 40 7 62 15 52 19 63 18 44 -1z m219 -41 c-2 -30 -7 -37
-20 -35 -10 2 -18 -2 -18 -8 0 -5 -7 -10 -15 -10 -8 0 -15 6 -15 14 0 17 24
38 33 29 4 -3 7 3 7 14 0 21 8 33 22 33 5 0 8 -17 6 -37z m-358 17 c0 -5 -6
-10 -14 -10 -8 0 -18 5 -21 10 -3 6 3 10 14 10 12 0 21 -4 21 -10z m-220 -40
c6 -11 7 -20 2 -20 -10 0 -32 21 -32 32 0 16 19 8 30 -12z m420 -154 c6 -8 18
-12 26 -9 19 7 18 -16 -3 -39 -17 -19 -72 -24 -101 -9 -10 4 -49 4 -90 -2 -74
-11 -110 -3 -105 22 2 6 -4 8 -12 5 -11 -4 -13 -2 -10 9 13 32 270 52 295 23z"/>
<path d="M2216 7775 c-3 -8 -1 -15 4 -15 6 0 10 7 10 15 0 8 -2 15 -4 15 -2 0
-6 -7 -10 -15z"/>
<path d="M2200 7696 c0 -9 5 -16 10 -16 6 0 10 4 10 9 0 6 -4 13 -10 16 -5 3
-10 -1 -10 -9z"/>
<path d="M2470 7650 c0 -5 5 -10 11 -10 5 0 7 5 4 10 -3 6 -8 10 -11 10 -2 0
-4 -4 -4 -10z"/>
<path d="M2124 7575 c-10 -8 -14 -15 -8 -15 6 0 17 7 24 15 16 19 9 19 -16 0z"/>
<path d="M2281 7133 c-1 -17 16 -25 25 -12 4 7 3 9 -4 5 -5 -3 -13 0 -15 6 -4
9 -6 10 -6 1z"/>
<path d="M2918 6973 c6 -2 18 -2 25 0 6 3 1 5 -13 5 -14 0 -19 -2 -12 -5z"/>
<path d="M2217 5960 c3 -12 0 -20 -7 -20 -7 0 -10 -8 -7 -20 3 -14 0 -20 -10
-20 -12 0 -13 -3 -4 -14 8 -10 9 -16 1 -21 -15 -10 -12 -25 6 -25 10 0 14 6
11 14 -3 7 -2 17 3 22 12 14 23 104 12 104 -6 0 -8 -9 -5 -20z"/>
<path d="M2154 5933 c-21 -21 -34 -31 -29 -23 6 10 2 9 -12 -3 -21 -18 -26
-58 -8 -63 10 -4 100 115 92 122 -2 2 -21 -13 -43 -33z"/>
<path d="M3481 5904 c0 -11 3 -14 6 -6 3 7 2 16 -1 19 -3 4 -6 -2 -5 -13z"/>
<path d="M3435 5824 c-9 -14 -15 -27 -13 -30 2 -2 12 10 22 26 21 37 15 40 -9
4z"/>
<path d="M2173 5807 c0 -13 8 -35 18 -48 l19 -24 0 33 c0 18 -6 40 -14 48 -20
19 -23 18 -23 -9z"/>
<path d="M3327 5651 c-38 -58 -88 -135 -110 -171 -23 -36 -47 -65 -52 -65 -5
0 -19 16 -32 35 -12 19 -39 56 -59 82 l-37 48 -33 -33 c-31 -31 -31 -33 -13
-46 25 -18 24 -36 -3 -56 -23 -15 -22 -15 10 -9 22 5 45 1 70 -11 88 -42 102
-48 105 -44 2 2 29 46 60 97 31 50 82 133 113 182 31 50 55 92 53 94 -2 2 -35
-45 -72 -103z m-293 -136 c3 -9 0 -15 -9 -15 -8 0 -15 7 -15 15 0 8 4 15 9 15
5 0 11 -7 15 -15z"/>
<path d="M2956 5655 c-9 -26 -7 -32 5 -12 6 10 9 21 6 23 -2 3 -7 -2 -11 -11z"/>
<path d="M2384 5613 c-9 -21 -24 -63 -34 -93 -17 -53 -42 -118 -71 -187 -7
-18 -17 -33 -21 -33 -4 0 -8 -7 -8 -15 0 -8 5 -15 10 -15 6 0 10 7 10 15 0 8
4 15 8 15 10 0 85 72 106 101 12 18 18 20 30 10 8 -6 17 -23 20 -37 7 -27 23
-45 80 -88 30 -22 49 -29 86 -29 63 -1 81 14 69 56 -5 18 -5 33 0 35 4 1 5 17
2 34 -5 24 -17 37 -51 55 -49 26 -145 115 -191 176 l-28 39 -17 -39z"/>
<path d="M2960 5545 c0 -8 2 -15 4 -15 2 0 6 7 10 15 3 8 1 15 -4 15 -6 0 -10
-7 -10 -15z"/>
<path d="M1490 4516 c0 -3 5 -17 12 -31 11 -25 28 -34 28 -15 0 6 -4 10 -10
10 -5 0 -10 6 -10 14 0 8 -4 18 -10 21 -5 3 -10 4 -10 1z"/>
<path d="M1530 4447 c0 -3 9 -28 19 -55 11 -26 22 -70 26 -98 4 -27 18 -71 30
-99 12 -27 25 -57 29 -65 3 -8 17 -33 31 -55 14 -22 32 -55 40 -72 8 -18 20
-33 26 -33 6 0 8 -9 4 -20 -4 -13 -1 -22 9 -26 9 -3 21 -24 26 -45 12 -42 30
-44 30 -3 0 25 -19 69 -136 311 -41 84 -74 156 -74 161 0 4 -8 19 -17 32 -10
14 -18 31 -20 39 -2 14 -23 40 -23 28z"/>
<path d="M4277 4433 c-4 -6 -9 -30 -11 -54 -3 -36 -8 -45 -26 -49 -24 -6 -41
-36 -33 -57 3 -7 -3 -10 -15 -6 -16 4 -21 -2 -27 -26 -8 -37 8 -69 41 -81 19
-7 24 -17 24 -42 0 -41 19 -25 20 17 3 93 -2 134 -16 139 -8 3 -14 15 -14 26
0 14 6 20 23 19 12 0 16 -3 10 -6 -15 -6 -17 -23 -3 -23 13 0 28 29 38 76 9
40 1 87 -11 67z"/>
<path d="M4237 4405 c-8 -20 -4 -29 11 -24 5 2 6 13 2 23 -6 19 -7 19 -13 1z"/>
<path d="M4230 4040 c0 -5 5 -10 10 -10 6 0 10 5 10 10 0 6 -4 10 -10 10 -5 0
-10 -4 -10 -10z"/>
<path d="M4244 3950 c3 -36 12 -90 20 -120 l14 -55 -5 55 c-3 30 -7 80 -10
110 -3 30 -9 60 -15 65 -7 7 -9 -10 -4 -55z"/>
<path d="M4281 3754 c0 -11 3 -14 6 -6 3 7 2 16 -1 19 -3 4 -6 -2 -5 -13z"/>
<path d="M4291 3650 c0 -8 6 -28 14 -45 l14 -30 -6 30 c-7 38 -22 68 -22 45z"/>
<path d="M1822 3630 c0 -14 2 -19 5 -12 2 6 2 18 0 25 -3 6 -5 1 -5 -13z"/>
<path d="M1836 3515 c-11 -9 -17 -22 -14 -33 3 -11 2 -26 -3 -33 -4 -7 -5 -18
-1 -24 4 -5 8 -28 9 -50 5 -67 22 -108 44 -102 10 3 17 0 16 -7 -1 -6 5 -10
13 -9 10 2 16 -6 16 -22 2 -28 -12 -34 -19 -7 -3 9 -5 2 -6 -17 -1 -30 -3 -33
-26 -29 -14 3 -25 2 -25 -1 0 -8 111 -111 121 -111 7 0 3 54 -6 95 -3 11 -8
65 -11 120 -5 71 -13 111 -27 140 -27 52 -26 52 -38 35 -9 -12 -10 -12 -5 3 3
11 -1 25 -10 34 -13 13 -13 17 -2 24 7 5 9 9 3 9 -5 -1 -18 -7 -29 -15z"/>
<path d="M4320 3511 c0 -6 4 -13 10 -16 6 -3 7 1 4 9 -7 18 -14 21 -14 7z"/>
<path d="M4320 3463 c0 -4 5 -15 10 -23 8 -13 10 -13 10 2 0 9 -4 20 -10 23
-5 3 -10 3 -10 -2z"/>
<path d="M4330 3400 c0 -11 5 -20 10 -20 6 0 10 9 10 20 0 11 -4 20 -10 20 -5
0 -10 -9 -10 -20z"/>
<path d="M4536 3375 c-3 -8 -1 -15 4 -15 6 0 10 7 10 15 0 8 -2 15 -4 15 -2 0
-6 -7 -10 -15z"/>
<path d="M4342 3325 c-1 -27 -8 -72 -16 -100 -9 -27 -16 -61 -16 -75 0 -21 4
-17 23 20 12 25 32 53 45 63 24 20 30 47 8 47 -7 0 -20 21 -28 48 l-16 47 0
-50z"/>
<path d="M5126 3341 c-17 -9 -40 -37 -53 -62 l-23 -44 25 30 c43 53 50 60 75
77 33 22 14 22 -24 -1z"/>
<path d="M4520 3320 c-10 -24 -15 -28 -26 -19 -11 9 -15 7 -20 -5 -10 -25 -24
-19 -25 12 0 16 -3 21 -6 12 -3 -8 -9 -17 -13 -20 -4 -3 -10 -22 -14 -43 -5
-29 -3 -39 8 -43 9 -3 14 -10 11 -14 -2 -4 6 -20 19 -35 l23 -27 37 44 c21 24
40 55 43 71 3 15 9 27 14 27 5 0 9 9 9 20 0 20 -1 20 -25 4 l-25 -16 6 31 c8
39 0 40 -16 1z"/>
<path d="M1603 3203 c-13 -2 -23 -10 -23 -16 0 -13 165 -16 177 -3 7 6 -35 11
-74 7 -12 -1 -24 3 -28 9 -6 10 -13 11 -52 3z"/>
<path d="M4807 3089 c-10 -6 -25 -8 -33 -5 -8 3 -12 2 -9 -4 6 -10 3 -10 -95
-15 -36 -2 -73 -6 -83 -10 -9 -4 -39 -8 -66 -9 -27 0 -47 -5 -44 -9 3 -4 46
-5 96 -2 51 3 108 6 128 5 35 -1 123 32 134 50 8 13 -5 12 -28 -1z"/>
<path d="M1946 2949 c-32 -38 -32 -42 2 -57 25 -11 26 -11 2 -7 -25 5 -25 5
-3 -6 25 -13 41 -71 26 -92 -21 -26 -21 -46 -1 -83 37 -70 14 -148 -49 -168
-21 -7 -38 -34 -28 -45 3 -3 20 -5 38 -6 27 0 32 -4 31 -22 -1 -35 9 -27 36
29 22 45 25 64 25 162 0 109 -30 326 -46 326 -4 0 -19 -14 -33 -31z"/>
<path d="M4445 2940 c-11 -18 8 -90 24 -92 48 -4 201 20 201 33 0 7 -68 21
-116 23 -19 0 -30 6 -27 12 5 13 -75 36 -82 24z m48 -77 c-7 -2 -19 -2 -25 0
-7 3 -2 5 12 5 14 0 19 -2 13 -5z m54 1 c-3 -3 -12 -4 -19 -1 -8 3 -5 6 6 6
11 1 17 -2 13 -5z"/>
<path d="M4935 2842 c-46 -16 -110 -50 -75 -39 32 10 135 31 142 29 27 -7 98
-8 98 -2 0 4 -17 10 -37 14 -21 3 -47 8 -58 11 -11 2 -42 -4 -70 -13z"/>
<path d="M1668 2805 c-2 -1 -25 -5 -53 -8 -27 -3 -66 -10 -85 -15 -28 -8 -16
-10 65 -10 70 -1 124 -7 180 -23 110 -30 139 -34 131 -20 -4 6 -13 11 -21 11
-7 0 -15 3 -17 8 -6 13 -78 42 -106 42 -15 0 -41 4 -59 9 -17 5 -33 8 -35 6z"/>
<path d="M1928 2713 c7 -3 16 -2 19 1 4 3 -2 6 -13 5 -11 0 -14 -3 -6 -6z"/>
<path d="M4495 2591 c-3 -5 7 -19 22 -31 30 -23 41 -14 23 19 -11 22 -35 28
-45 12z"/>
<path d="M1934 2290 c-5 -5 -38 -12 -74 -15 -94 -8 -160 -25 -200 -51 -39 -27
-39 -28 10 -14 19 5 65 13 103 16 69 6 177 45 177 64 0 12 -3 13 -16 0z"/>
<path d="M5147 2225 c-10 -33 -24 -84 -33 -113 -8 -30 -13 -56 -10 -59 6 -6 8
-2 29 67 27 86 39 139 35 152 -3 7 -12 -14 -21 -47z"/>
<path d="M1920 2095 c0 -8 -4 -15 -10 -15 -5 0 -10 5 -10 12 0 6 -3 8 -7 4 -5
-4 -1 -13 8 -19 9 -7 18 -19 22 -27 3 -8 6 2 6 23 1 20 -1 37 -4 37 -3 0 -5
-7 -5 -15z"/>
<path d="M1858 2093 c7 -3 16 -2 19 1 4 3 -2 6 -13 5 -11 0 -14 -3 -6 -6z"/>
<path d="M4668 2003 c7 -3 16 -2 19 1 4 3 -2 6 -13 5 -11 0 -14 -3 -6 -6z"/>
<path d="M1917 1960 c-3 -11 -1 -20 4 -20 5 0 9 9 9 20 0 11 -2 20 -4 20 -2 0
-6 -9 -9 -20z"/>
<path d="M5105 1847 c-18 -29 -40 -128 -49 -217 -2 -19 -1 -23 1 -7 2 15 9 25
14 21 6 -3 9 2 8 12 -2 11 6 39 18 64 12 26 20 60 18 80 -1 19 2 43 7 53 17
33 3 28 -17 -6z"/>
<path d="M4570 1769 c0 -5 5 -7 10 -4 6 3 10 8 10 11 0 2 -4 4 -10 4 -5 0 -10
-5 -10 -11z"/>
<path d="M4725 1693 c-11 -2 -53 -11 -93 -20 -64 -13 -122 -45 -122 -66 0 -3
28 3 63 14 46 14 93 19 187 19 69 0 132 5 140 10 11 7 11 10 2 10 -7 0 -10 5
-7 10 14 23 -101 38 -170 23z"/>
<path d="M4510 1520 c0 -5 5 -10 11 -10 5 0 7 5 4 10 -3 6 -8 10 -11 10 -2 0
-4 -4 -4 -10z"/>
<path d="M1920 1449 c0 -89 -9 -107 -64 -133 -53 -25 -141 -45 -213 -48 -23
-1 -46 -4 -51 -7 -11 -7 -20 -132 -28 -381 -6 -157 -4 -184 15 -265 30 -127
63 -189 114 -219 67 -39 143 -66 220 -76 49 -7 78 -17 94 -32 12 -11 44 -26
70 -33 58 -15 65 -26 95 -157 l23 -98 476 0 477 0 33 52 c34 52 34 53 37 195
l3 142 -43 11 c-24 6 -68 20 -98 30 -58 21 -70 17 -70 -27 0 -28 -1 -28 -120
-4 -52 11 -126 25 -165 32 -145 25 -353 111 -495 204 -71 46 -201 192 -228
255 -8 19 -19 76 -23 125 -4 50 -14 135 -23 190 -8 55 -18 138 -21 184 -6 86
-15 123 -15 60z m-82 -234 c-3 -3 -9 2 -12 12 -6 14 -5 15 5 6 7 -7 10 -15 7
-18z m142 -359 c0 -14 -29 -31 -38 -22 -2 3 -2 12 1 21 8 19 37 20 37 1z"/>
<path d="M4305 1010 c-10 -11 -21 -17 -26 -14 -4 2 -13 -5 -19 -16 -7 -13 -17
-19 -26 -16 -8 3 -12 2 -9 -4 3 -5 -5 -21 -17 -35 -13 -15 -23 -30 -23 -33 0
-4 -8 -18 -16 -32 -40 -63 -68 -118 -63 -123 3 -3 -3 -15 -14 -27 -11 -12 -18
-28 -16 -35 13 -32 -131 -233 -180 -251 -193 -75 -198 -76 -306 -76 -58 0
-147 7 -198 16 -51 9 -97 14 -101 12 -5 -3 2 -35 15 -72 19 -50 74 -276 74
-300 0 -2 221 -4 490 -4 l490 0 0 39 c0 35 5 43 44 71 44 32 78 74 162 205 65
100 71 112 126 274 60 179 89 280 80 284 -4 2 -33 4 -64 5 -86 3 -351 103
-365 138 -7 19 -17 18 -38 -6z m-392 -621 c-4 -14 1 -25 17 -36 17 -12 21 -22
16 -45 -5 -26 -4 -29 9 -18 20 17 19 8 -2 -17 -24 -27 -49 -34 -77 -23 -42 16
-42 45 0 106 20 29 38 54 40 54 1 0 0 -9 -3 -21z"/>
</g>
</svg>
